<?xml version="1.0" encoding="utf-8"?>
<!-- Generator: Adobe Illustrator 19.1.0, SVG Export Plug-In . SVG Version: 6.00 Build 0)  -->
<svg version="1.1" id="Calque_1" xmlns="http://www.w3.org/2000/svg" xmlns:xlink="http://www.w3.org/1999/xlink" x="0px" y="0px"
	 viewBox="0 0 1578 596" style="enable-background:new 0 0 1578 596;" xml:space="preserve">
<style type="text/css">
	.st0{fill:#FFFFFF;}
</style>
<g>
	<path class="st0" d="M1216,596c-6.6-0.9-13.3-1.9-19.9-2.9c-64.2-9.4-117.9-59.2-132-123c-9.2-41.8-7.4-83.1,11.5-122
		c25.9-53.2,68.7-84,128-90.3c32-3.4,63.2,0.3,92.3,15.1c35.6,18.1,58.8,47.1,72.8,84c11.5,30.4,15,62.3,17,94.9
		c-85,0-169.7,0-255.9,0c3.2,8.5,5.6,16.5,9.1,23.9c18.4,38.6,56.9,60.7,99.1,54.9c16.6-2.3,32.6-8.9,48.7-14
		c8.7-2.7,17.1-6.4,26.4-10c6,20,11.9,40,18.1,60.7c-10.7,3.7-21.2,8-32,11c-20.8,5.8-41.8,10.9-62.7,16.3c-2.5,0.6-5,1-7.5,1.5
		C1224.7,596,1220.3,596,1216,596z M1307.8,386.1c-14.7-43.6-47.9-68.5-97.9-64c-34.5,3.1-72.7,35.9-74.7,64
		C1192.6,386.1,1250,386.1,1307.8,386.1z"/>
	<path class="st0" d="M0,474c0.8-3.3,1.6-6.6,2.5-9.9C13.2,423.8,40,398.9,79,387.2c35.9-10.8,71.8-7.3,107,4.5
		c1.4,0.5,2.8,0.9,4.9,1.6c0-7.5,0.1-14.6,0-21.6c-0.1-8.2-0.1-16.3-0.8-24.4c-0.9-10.3-6.4-17.7-15.7-22.1
		c-16.7-7.9-34.5-10-52.2-6.2c-20.9,4.4-41.3,11.2-62.7,17.2c-6.7-16.5-13.8-34.1-21.2-52.2c3.9-1.5,7.3-2.9,10.8-4.3
		c22.3-8.7,44.8-17.4,68.6-20.8c35.6-5.1,70.2-0.7,101.8,17.7c23.1,13.4,35.3,34.7,39.3,60.7c1.1,7.4,1.5,14.9,1.5,22.4
		c0.1,51.8,0.1,103.6,0.1,155.5c0,1.9,0,3.9,0,6.4c5.3,0,10,0,15,0c0,21.9,0,43.4,0,65.2c-27.9,0-56,0-84.4,0c0-6.6,0-13.4,0-21.2
		c-2.4,1.3-4,2.2-5.7,3.1c-25.6,14.2-52.4,23.1-82.2,22.6c-55.7-0.9-97.9-44.9-102.3-88.6C0.8,502,0.3,501.5,0,501
		C0,492,0,483,0,474z M190.9,476.8c0-4.7,0.2-9.3-0.1-14c-0.1-1.6-1.4-3.8-2.7-4.5c-20.2-10.6-41.4-16.9-64.6-15.3
		c-16.1,1.1-30.6,5.5-42,17.9c-15.3,16.7-15,41.9,1,57c10.4,9.8,23.3,11.5,36.8,10.5c22.5-1.7,41.8-11.4,59.5-24.6
		c12.3-9.2,12.2-9.4,12.2-24.5C190.9,478.5,190.9,477.6,190.9,476.8z"/>
	<path class="st0" d="M431,596c-6.1-0.9-12.3-1.7-18.4-2.7c-57.2-9.1-95.9-42-118.6-94.2c-13.6-31.3-16-64.3-12.2-98
		c5.1-45.1,25.1-82.3,60-111.4c32.1-26.7,69.5-35.9,110.5-32.1c23,2.1,44.1,9.3,62.7,23.4c1.5,1.2,4,1.5,6,1.5
		c16.8,0.1,33.6,0.1,50.7,0.1c0,42.9,0,85.4,0,128.2c-21.1,0-42,0-63,0c-0.9-9.2-1.9-18.3-2.6-27.4c-3.6-45-40.5-60.4-72-60
		c-45.3,0.7-71.9,33.2-79.7,68.4c-6.5,29.1-6.3,58.3,6.3,86.1c16,35.4,47.8,53.3,86.6,50.5c28.4-2.1,48.9-16,63.1-39.7
		c6.5-10.8,11.7-22.3,17.7-33.7c18.6,8,37.6,16.1,56.5,24.2c0.9,0.4,1.7,0.9,2.7,1.4c-19.7,56.1-53.4,97.6-114.1,111.1
		c-8.1,1.8-16.5,2.1-24.7,3.2c-0.9,0.1-1.7,0.6-2.5,0.9C441,596,436,596,431,596z"/>
	<path class="st0" d="M1578,159c-9.7,3.4-19.4,7-29.1,10.2c-2.9,1-3.8,2.7-4.9,5.4c-3.4,7.8-1.3,13.5,4.7,19.2
		c5.5,5.2,10.1,11.5,15.2,17.5c-3.5,6-6.7,12-10.4,17.7c-0.8,1.2-3.6,1.9-5.3,1.6c-8.9-1.4-17.6-3.4-26.5-4.8
		c-1.7-0.3-4,0.6-5.5,1.6c-7.5,4.8-9.2,11.3-6.4,19.9c2.2,7.1,2.9,14.6,4.3,22.2c-6.1,3.5-12,7.1-18.2,10.4c-1,0.5-3.1,0-4.1-0.8
		c-6.9-5.7-13.8-11.5-20.5-17.6c-2.4-2.1-4.4-2.1-7.5-1.8c-8.9,0.8-12.5,6-14.6,13.9c-1.9,7.2-4.8,14.2-7.2,21.3
		c-7.8,0-15.5,0-23.4,0c-3.3-9.4-6.6-18.8-9.7-28.2c-1-3-2.8-4-5.7-5.2c-7.9-3.4-13.5-1.4-19.2,4.6c-5.2,5.5-11.5,10.1-17.4,15.1
		c-5.8-3.3-11.3-6.7-17-9.8c-2.6-1.3-3.1-2.9-2.5-5.5c1.8-8.6,3.2-17.3,5.1-25.9c0.7-3.1-0.4-4.9-2.2-7.4c-5.2-7.1-11.4-8-19.3-5.6
		c-6,1.8-12.4,2.5-18.6,3.8c-2.6,0.6-4.3,0.1-5.6-2.5c-2.4-4.7-5.1-9.3-8-13.8c-1.5-2.4-1.4-3.9,0.6-6c6-6.7,11.7-13.7,17.7-20.3
		c2.1-2.3,1.9-4.2,1.6-7.1c-1-8.4-5.5-12.5-13.5-14.3c-6.3-1.4-12.2-4.3-18.4-6.2c-3-0.9-3.8-2.5-3.6-5.4c0.2-5.2,0.2-10.3,0-15.5
		c-0.1-2.7,0.7-4.1,3.5-5c8.4-2.7,16.6-5.9,25-8.6c3.1-1,4.5-2.6,5.7-5.8c2.8-7.2,1.5-12.6-4.1-18c-5.1-4.8-9.1-10.6-13.8-15.8
		c-1.7-1.9-2.1-3.3-0.7-5.6c2.9-4.6,5.6-9.4,8.2-14.2c1.2-2.3,2.6-3,5.2-2.4c9,1.9,18,3.3,26.9,5.3c3,0.7,4.6-0.4,7-2.1
		c6.7-4.7,7.7-10.4,5.6-17.9c-1.9-6.5-2.6-13.4-4-20c-0.6-2.8-0.2-4.5,2.6-6c5.6-2.9,11-6.2,16.8-9.6c7.6,6.6,15.4,13.1,22.9,19.8
		c2.6,2.4,5,3.3,8.4,1.8c2.1-0.9,4.5-1,6.7-1.8c1.1-0.4,2.6-1.2,2.9-2.2c3.6-10.5,7.1-21,10.6-31.6c8,0,16,0,24,0
		c2.6,7.7,5.8,15.2,7.8,23.1c1.8,7.4,5.3,11.8,13.3,12.7c3,0.4,5.1,0.6,7.5-1.6c7.6-6.9,15.5-13.5,23.4-20.2
		c6,3.5,11.9,6.6,17.4,10.2c1.2,0.8,2.2,3.1,1.9,4.5c-1,6.9-1.8,13.9-3.8,20.6c-2.3,7.5-1.3,13.2,5.3,18.1c2.5,1.9,4.3,2.8,7.4,2.2
		c8.9-2,17.9-3.6,26.9-5.1c1.4-0.2,3.7,0.6,4.4,1.7c3.6,5.7,6.9,11.7,10.4,17.8c-5.2,6-9.8,12.4-15.4,17.8c-6,5.7-8.3,11.5-4.3,19
		c1,1.9,2.6,4.3,4.5,5c8,3.2,16.3,5.7,24.4,8.7c1.8,0.6,3.4,1.8,5.1,2.8C1578,144.3,1578,151.7,1578,159z M1371.5,147.9
		c0,32.4,26.6,58.9,58.9,58.8c32.1-0.1,58.5-26.5,58.6-58.6c0.1-32.4-26.3-58.9-58.6-59C1398,89,1371.5,115.6,1371.5,147.9z"/>
	<path class="st0" d="M678,521.5c6.2,0,11.9,0,18.3,0c0,11,0,21.7,0,32.5c0,10.8,0,21.6,0,32.7c-29.4,0-58.5,0-88,0
		c0-85.3,0-170.7,0-256.6c-6.7,0-12.9,0-19.4,0c0-21.9,0-43.4,0-65.1c29.6,0,59,0,88.8,0c0,5.7,0,11.3,0,17.8
		c2.2-1.1,3.8-1.8,5.2-2.7c27-15.4,55.6-24.8,87-23c29.5,1.6,54.9,11.5,72.2,37c0.4,0.5,0.7,1.1,1.2,1.7
		c21-15.7,43.4-27.3,68.3-34.2c21.7-6,43.4-6.5,65.1-0.7c36.9,10,63,42.1,64.2,80.5c0.8,26.1,0.4,52.3,0.4,78.5
		c0,31.8,0,63.7,0,95.5c0,1.8,0,3.6,0,5.9c5.5,0,10.6,0,16,0c0,22.1,0,43.6,0,65.4c-28.3,0-56.6,0-85.6,0c0-1.9,0-3.8,0-5.7
		c0-74.8,0-149.7-0.1-224.5c0-5.1-0.4-10.4-1.6-15.3c-2.4-10.7-8.9-16-19.9-17.2c-14.1-1.5-27.5,1.2-40.4,6.7
		c-17.1,7.3-32.6,17.2-46.4,29.8c-2.8,2.6-4,5.1-4,9c0.1,70.3,0.1,140.7,0.1,211c0,2,0,4,0,6.2c-23.3,0-46.2,0-69.6,0
		c0-1.9,0-3.9,0-5.8c0-75.2,0-150.3,0-225.5c0-4-0.3-8-0.8-11.9c-1.4-11.4-8.5-18.1-20-19.5c-14-1.7-27.1,1.5-39.9,6.8
		c-17.5,7.2-33.8,16.5-48.3,28.6c-1.5,1.3-2.9,3.7-2.9,5.7c-0.2,51.2-0.1,102.3-0.1,153.5C677.8,519.3,677.9,520.1,678,521.5z"/>
</g>
</svg>
